<svg height="2062" width="720" xmlns="http://www.w3.org/2000/svg">
<rect height="2062" fill="#555" width="720"></rect>
<text fill="#7f7" font-family="Courier New" font-size="12" xml:space="preserve">
<tspan x="10" y="26">18 megabytes installed</tspan>
<tspan x="10" y="42"></tspan>
<tspan x="10" y="58">node_modules</tspan>
<tspan x="10" y="74">└─┬ nar@0.3.40 </tspan>
<tspan x="10" y="90">  ├─┬ archiver@1.3.0 </tspan>
<tspan x="10" y="106">  │ ├─┬ archiver-utils@1.3.0 </tspan>
<tspan x="10" y="122">  │ │ ├── graceful-fs@4.1.11 </tspan>
<tspan x="10" y="138">  │ │ ├── lazystream@1.0.0 </tspan>
<tspan x="10" y="154">  │ │ └─┬ normalize-path@2.1.1 </tspan>
<tspan x="10" y="170">  │ │   └── remove-trailing-separator@1.0.1 </tspan>
<tspan x="10" y="186">  │ ├── async@2.3.0 </tspan>
<tspan x="10" y="202">  │ ├── buffer-crc32@0.2.13 </tspan>
<tspan x="10" y="218">  │ ├─┬ glob@7.1.1 </tspan>
<tspan x="10" y="234">  │ │ ├── fs.realpath@1.0.0 </tspan>
<tspan x="10" y="250">  │ │ ├─┬ inflight@1.0.6 </tspan>
<tspan x="10" y="266">  │ │ │ └── wrappy@1.0.2 </tspan>
<tspan x="10" y="282">  │ │ ├─┬ minimatch@3.0.3 </tspan>
<tspan x="10" y="298">  │ │ │ └─┬ brace-expansion@1.1.7 </tspan>
<tspan x="10" y="314">  │ │ │   ├── balanced-match@0.4.2 </tspan>
<tspan x="10" y="330">  │ │ │   └── concat-map@0.0.1 </tspan>
<tspan x="10" y="346">  │ │ ├── once@1.4.0 </tspan>
<tspan x="10" y="362">  │ │ └── path-is-absolute@1.0.1 </tspan>
<tspan x="10" y="378">  │ ├── lodash@4.17.4 </tspan>
<tspan x="10" y="394">  │ ├─┬ readable-stream@2.2.9 </tspan>
<tspan x="10" y="410">  │ │ ├── buffer-shims@1.0.0 </tspan>
<tspan x="10" y="426">  │ │ ├── core-util-is@1.0.2 </tspan>
<tspan x="10" y="442">  │ │ ├── isarray@1.0.0 </tspan>
<tspan x="10" y="458">  │ │ ├── process-nextick-args@1.0.7 </tspan>
<tspan x="10" y="474">  │ │ ├── string_decoder@1.0.0 </tspan>
<tspan x="10" y="490">  │ │ └── util-deprecate@1.0.2 </tspan>
<tspan x="10" y="506">  │ ├─┬ tar-stream@1.5.2 </tspan>
<tspan x="10" y="522">  │ │ ├── bl@1.2.0 </tspan>
<tspan x="10" y="538">  │ │ ├── end-of-stream@1.4.0 </tspan>
<tspan x="10" y="554">  │ │ └── xtend@4.0.1 </tspan>
<tspan x="10" y="570">  │ ├── walkdir@0.0.11 </tspan>
<tspan x="10" y="586">  │ └─┬ zip-stream@1.1.1 </tspan>
<tspan x="10" y="602">  │   └─┬ compress-commons@1.2.0 </tspan>
<tspan x="10" y="618">  │     └─┬ crc32-stream@2.0.0 </tspan>
<tspan x="10" y="634">  │       └── crc@3.4.4 </tspan>
<tspan x="10" y="650">  ├── array-unique@0.2.1 </tspan>
<tspan x="10" y="666">  ├─┬ cli-table@0.3.1 </tspan>
<tspan x="10" y="682">  │ └── colors@1.0.3 </tspan>
<tspan x="10" y="698">  ├── colors@1.1.2 </tspan>
<tspan x="10" y="714">  ├─┬ commander@2.9.0 </tspan>
<tspan x="10" y="730">  │ └── graceful-readlink@1.0.1 </tspan>
<tspan x="10" y="746">  ├─┬ findup-sync@0.2.1 </tspan>
<tspan x="10" y="762">  │ └─┬ glob@4.3.5 </tspan>
<tspan x="10" y="778">  │   └── minimatch@2.0.10 </tspan>
<tspan x="10" y="794">  ├── fw@0.1.2 </tspan>
<tspan x="10" y="810">  ├── hu@0.1.2 </tspan>
<tspan x="10" y="826">  ├─┬ mkdirp@0.5.1 </tspan>
<tspan x="10" y="842">  │ └── minimist@0.0.8 </tspan>
<tspan x="10" y="858">  ├── ncp@2.0.0 </tspan>
<tspan x="10" y="874">  ├── progress@1.1.8 </tspan>
<tspan x="10" y="890">  ├─┬ read@1.0.7 </tspan>
<tspan x="10" y="906">  │ └── mute-stream@0.0.7 </tspan>
<tspan x="10" y="922">  ├─┬ request@2.81.0 </tspan>
<tspan x="10" y="938">  │ ├── aws-sign2@0.6.0 </tspan>
<tspan x="10" y="954">  │ ├── aws4@1.6.0 </tspan>
<tspan x="10" y="970">  │ ├── caseless@0.12.0 </tspan>
<tspan x="10" y="986">  │ ├─┬ combined-stream@1.0.5 </tspan>
<tspan x="10" y="1002">  │ │ └── delayed-stream@1.0.0 </tspan>
<tspan x="10" y="1018">  │ ├── extend@3.0.0 </tspan>
<tspan x="10" y="1034">  │ ├── forever-agent@0.6.1 </tspan>
<tspan x="10" y="1050">  │ ├─┬ form-data@2.1.4 </tspan>
<tspan x="10" y="1066">  │ │ └── asynckit@0.4.0 </tspan>
<tspan x="10" y="1082">  │ ├─┬ har-validator@4.2.1 </tspan>
<tspan x="10" y="1098">  │ │ ├─┬ ajv@4.11.7 </tspan>
<tspan x="10" y="1114">  │ │ │ ├── co@4.6.0 </tspan>
<tspan x="10" y="1130">  │ │ │ └─┬ json-stable-stringify@1.0.1 </tspan>
<tspan x="10" y="1146">  │ │ │   └── jsonify@0.0.0 </tspan>
<tspan x="10" y="1162">  │ │ └── har-schema@1.0.5 </tspan>
<tspan x="10" y="1178">  │ ├─┬ hawk@3.1.3 </tspan>
<tspan x="10" y="1194">  │ │ ├── boom@2.10.1 </tspan>
<tspan x="10" y="1210">  │ │ ├── cryptiles@2.0.5 </tspan>
<tspan x="10" y="1226">  │ │ ├── hoek@2.16.3 </tspan>
<tspan x="10" y="1242">  │ │ └── sntp@1.0.9 </tspan>
<tspan x="10" y="1258">  │ ├─┬ http-signature@1.1.1 </tspan>
<tspan x="10" y="1274">  │ │ ├── assert-plus@0.2.0 </tspan>
<tspan x="10" y="1290">  │ │ ├─┬ jsprim@1.4.0 </tspan>
<tspan x="10" y="1306">  │ │ │ ├── assert-plus@1.0.0 </tspan>
<tspan x="10" y="1322">  │ │ │ ├── extsprintf@1.0.2 </tspan>
<tspan x="10" y="1338">  │ │ │ ├── json-schema@0.2.3 </tspan>
<tspan x="10" y="1354">  │ │ │ └── verror@1.3.6 </tspan>
<tspan x="10" y="1370">  │ │ └─┬ sshpk@1.13.0 </tspan>
<tspan x="10" y="1386">  │ │   ├── asn1@0.2.3 </tspan>
<tspan x="10" y="1402">  │ │   ├── assert-plus@1.0.0 </tspan>
<tspan x="10" y="1418">  │ │   ├── bcrypt-pbkdf@1.0.1 </tspan>
<tspan x="10" y="1434">  │ │   ├─┬ dashdash@1.14.1 </tspan>
<tspan x="10" y="1450">  │ │   │ └── assert-plus@1.0.0 </tspan>
<tspan x="10" y="1466">  │ │   ├── ecc-jsbn@0.1.1 </tspan>
<tspan x="10" y="1482">  │ │   ├─┬ getpass@0.1.6 </tspan>
<tspan x="10" y="1498">  │ │   │ └── assert-plus@1.0.0 </tspan>
<tspan x="10" y="1514">  │ │   ├── jodid25519@1.0.2 </tspan>
<tspan x="10" y="1530">  │ │   ├── jsbn@0.1.1 </tspan>
<tspan x="10" y="1546">  │ │   └── tweetnacl@0.14.5 </tspan>
<tspan x="10" y="1562">  │ ├── is-typedarray@1.0.0 </tspan>
<tspan x="10" y="1578">  │ ├── isstream@0.1.2 </tspan>
<tspan x="10" y="1594">  │ ├── json-stringify-safe@5.0.1 </tspan>
<tspan x="10" y="1610">  │ ├─┬ mime-types@2.1.15 </tspan>
<tspan x="10" y="1626">  │ │ └── mime-db@1.27.0 </tspan>
<tspan x="10" y="1642">  │ ├── oauth-sign@0.8.2 </tspan>
<tspan x="10" y="1658">  │ ├── performance-now@0.2.0 </tspan>
<tspan x="10" y="1674">  │ ├── qs@6.4.0 </tspan>
<tspan x="10" y="1690">  │ ├── safe-buffer@5.0.1 </tspan>
<tspan x="10" y="1706">  │ ├── stringstream@0.0.5 </tspan>
<tspan x="10" y="1722">  │ ├─┬ tough-cookie@2.3.2 </tspan>
<tspan x="10" y="1738">  │ │ └── punycode@1.4.1 </tspan>
<tspan x="10" y="1754">  │ ├── tunnel-agent@0.6.0 </tspan>
<tspan x="10" y="1770">  │ └── uuid@3.0.1 </tspan>
<tspan x="10" y="1786">  ├─┬ request-progress@0.3.1 </tspan>
<tspan x="10" y="1802">  │ └── throttleit@0.0.2 </tspan>
<tspan x="10" y="1818">  ├─┬ requireg@0.1.6 </tspan>
<tspan x="10" y="1834">  │ ├─┬ rc@1.0.3 </tspan>
<tspan x="10" y="1850">  │ │ ├── deep-extend@0.2.11 </tspan>
<tspan x="10" y="1866">  │ │ ├── ini@1.3.4 </tspan>
<tspan x="10" y="1882">  │ │ └── strip-json-comments@0.1.3 </tspan>
<tspan x="10" y="1898">  │ └── resolve@0.6.3 </tspan>
<tspan x="10" y="1914">  ├─┬ resolve-tree@0.1.13 </tspan>
<tspan x="10" y="1930">  │ ├── object-assign@4.1.1 </tspan>
<tspan x="10" y="1946">  │ └─┬ resolve@1.3.2 </tspan>
<tspan x="10" y="1962">  │   └── path-parse@1.0.5 </tspan>
<tspan x="10" y="1978">  ├── rimraf@2.6.1 </tspan>
<tspan x="10" y="1994">  └─┬ tar@2.2.1 </tspan>
<tspan x="10" y="2010">    ├── block-stream@0.0.9 </tspan>
<tspan x="10" y="2026">    ├── fstream@1.0.11 </tspan>
<tspan x="10" y="2042">    └── inherits@2.0.3</tspan>
</text>
</svg>
